<mxfile host="app.diagrams.net" modified="2023-12-26T09:56:39.459Z" agent="Mozilla/5.0 (Macintosh; Intel Mac OS X 10_15_7) AppleWebKit/537.36 (KHTML, like Gecko) Chrome/120.0.0.0 Safari/537.36" etag="-sp03nmC8J_CU4yyCRv0" version="22.1.11" type="device" pages="6">
  <diagram name="Binary search" id="BpW2wSu0-jAcMIialk9N">
    <mxGraphModel dx="1434" dy="795" grid="1" gridSize="10" guides="1" tooltips="1" connect="1" arrows="1" fold="1" page="1" pageScale="1" pageWidth="827" pageHeight="1169" math="0" shadow="0">
      <root>
        <mxCell id="0" />
        <mxCell id="1" parent="0" />
        <mxCell id="abL7TyQ9WLRIGnIlFdkN-9" style="edgeStyle=orthogonalEdgeStyle;rounded=0;orthogonalLoop=1;jettySize=auto;html=1;sketch=1;curveFitting=1;jiggle=2;" parent="1" source="abL7TyQ9WLRIGnIlFdkN-1" target="abL7TyQ9WLRIGnIlFdkN-5" edge="1">
          <mxGeometry relative="1" as="geometry" />
        </mxCell>
        <mxCell id="abL7TyQ9WLRIGnIlFdkN-10" style="edgeStyle=orthogonalEdgeStyle;rounded=0;orthogonalLoop=1;jettySize=auto;html=1;entryX=0.5;entryY=0;entryDx=0;entryDy=0;sketch=1;curveFitting=1;jiggle=2;" parent="1" source="abL7TyQ9WLRIGnIlFdkN-1" target="abL7TyQ9WLRIGnIlFdkN-2" edge="1">
          <mxGeometry relative="1" as="geometry" />
        </mxCell>
        <mxCell id="abL7TyQ9WLRIGnIlFdkN-1" value="Book 4" style="ellipse;whiteSpace=wrap;html=1;aspect=fixed;fillColor=#00CC00;strokeColor=#82b366;fillStyle=auto;sketch=1;curveFitting=1;jiggle=2;" parent="1" vertex="1">
          <mxGeometry x="374" y="150" width="80" height="80" as="geometry" />
        </mxCell>
        <mxCell id="abL7TyQ9WLRIGnIlFdkN-11" style="edgeStyle=orthogonalEdgeStyle;rounded=0;orthogonalLoop=1;jettySize=auto;html=1;sketch=1;curveFitting=1;jiggle=2;" parent="1" source="abL7TyQ9WLRIGnIlFdkN-2" edge="1">
          <mxGeometry relative="1" as="geometry">
            <mxPoint x="190" y="370" as="targetPoint" />
          </mxGeometry>
        </mxCell>
        <mxCell id="abL7TyQ9WLRIGnIlFdkN-12" style="edgeStyle=orthogonalEdgeStyle;rounded=0;orthogonalLoop=1;jettySize=auto;html=1;sketch=1;curveFitting=1;jiggle=2;" parent="1" source="abL7TyQ9WLRIGnIlFdkN-2" edge="1">
          <mxGeometry relative="1" as="geometry">
            <mxPoint x="340" y="370" as="targetPoint" />
          </mxGeometry>
        </mxCell>
        <mxCell id="abL7TyQ9WLRIGnIlFdkN-2" value="Book 3" style="ellipse;whiteSpace=wrap;html=1;aspect=fixed;fillColor=#d5e8d4;strokeColor=#82b366;sketch=1;curveFitting=1;jiggle=2;" parent="1" vertex="1">
          <mxGeometry x="230" y="270" width="80" height="80" as="geometry" />
        </mxCell>
        <mxCell id="abL7TyQ9WLRIGnIlFdkN-3" value="Book 1" style="ellipse;whiteSpace=wrap;html=1;aspect=fixed;fillColor=#d5e8d4;strokeColor=#82b366;sketch=1;curveFitting=1;jiggle=2;" parent="1" vertex="1">
          <mxGeometry x="150" y="380" width="80" height="80" as="geometry" />
        </mxCell>
        <mxCell id="abL7TyQ9WLRIGnIlFdkN-4" value="Book 2" style="ellipse;whiteSpace=wrap;html=1;aspect=fixed;fillColor=#d5e8d4;strokeColor=#82b366;sketch=1;curveFitting=1;jiggle=2;" parent="1" vertex="1">
          <mxGeometry x="290" y="380" width="80" height="80" as="geometry" />
        </mxCell>
        <mxCell id="abL7TyQ9WLRIGnIlFdkN-13" style="edgeStyle=orthogonalEdgeStyle;rounded=0;orthogonalLoop=1;jettySize=auto;html=1;sketch=1;curveFitting=1;jiggle=2;" parent="1" source="abL7TyQ9WLRIGnIlFdkN-5" edge="1">
          <mxGeometry relative="1" as="geometry">
            <mxPoint x="470" y="370" as="targetPoint" />
          </mxGeometry>
        </mxCell>
        <mxCell id="abL7TyQ9WLRIGnIlFdkN-5" value="Book 5" style="ellipse;whiteSpace=wrap;html=1;aspect=fixed;fillColor=#00CC00;strokeColor=#82b366;sketch=1;curveFitting=1;jiggle=2;" parent="1" vertex="1">
          <mxGeometry x="510" y="270" width="80" height="80" as="geometry" />
        </mxCell>
        <mxCell id="abL7TyQ9WLRIGnIlFdkN-7" value="Book 6" style="ellipse;whiteSpace=wrap;html=1;aspect=fixed;fillColor=#00CC00;strokeColor=#82b366;sketch=1;curveFitting=1;jiggle=2;" parent="1" vertex="1">
          <mxGeometry x="440" y="380" width="80" height="80" as="geometry" />
        </mxCell>
      </root>
    </mxGraphModel>
  </diagram>
  <diagram id="6U-gzkcH7e4EFfm_-Rkx" name="Hash Search">
    <mxGraphModel dx="1434" dy="739" grid="1" gridSize="10" guides="1" tooltips="1" connect="1" arrows="1" fold="1" page="1" pageScale="1" pageWidth="827" pageHeight="1169" math="0" shadow="0">
      <root>
        <mxCell id="0" />
        <mxCell id="1" parent="0" />
        <mxCell id="2EdTgYvVB3OdcfnQWNMI-11" value="" style="rounded=0;whiteSpace=wrap;html=1;sketch=1;curveFitting=1;jiggle=2;" vertex="1" parent="1">
          <mxGeometry x="130" y="100" width="520" height="530" as="geometry" />
        </mxCell>
        <mxCell id="2EdTgYvVB3OdcfnQWNMI-1" value="" style="rounded=1;whiteSpace=wrap;html=1;sketch=1;curveFitting=1;jiggle=2;" vertex="1" parent="1">
          <mxGeometry x="190" y="150" width="120" height="440" as="geometry" />
        </mxCell>
        <mxCell id="2EdTgYvVB3OdcfnQWNMI-3" value="Bucket 1" style="text;html=1;align=center;verticalAlign=middle;resizable=0;points=[];autosize=1;strokeColor=none;fillColor=none;fontStyle=1;fontSize=16;sketch=1;curveFitting=1;jiggle=2;" vertex="1" parent="1">
          <mxGeometry x="205" y="160" width="90" height="30" as="geometry" />
        </mxCell>
        <mxCell id="2EdTgYvVB3OdcfnQWNMI-5" value="Word 1 - 2" style="rounded=1;whiteSpace=wrap;html=1;fillColor=#d5e8d4;gradientColor=#97d077;strokeColor=#82b366;sketch=1;curveFitting=1;jiggle=2;" vertex="1" parent="1">
          <mxGeometry x="205" y="220" width="90" height="40" as="geometry" />
        </mxCell>
        <mxCell id="2EdTgYvVB3OdcfnQWNMI-6" value="Word 2 - 1" style="rounded=1;whiteSpace=wrap;html=1;fillColor=#d5e8d4;gradientColor=#97d077;strokeColor=#82b366;sketch=1;curveFitting=1;jiggle=2;" vertex="1" parent="1">
          <mxGeometry x="205" y="270" width="90" height="40" as="geometry" />
        </mxCell>
        <mxCell id="2EdTgYvVB3OdcfnQWNMI-7" value="" style="rounded=1;whiteSpace=wrap;html=1;sketch=1;curveFitting=1;jiggle=2;" vertex="1" parent="1">
          <mxGeometry x="330" y="150" width="120" height="440" as="geometry" />
        </mxCell>
        <mxCell id="2EdTgYvVB3OdcfnQWNMI-8" value="Bucket 2" style="text;html=1;align=center;verticalAlign=middle;resizable=0;points=[];autosize=1;strokeColor=none;fillColor=none;fontStyle=1;fontSize=16;sketch=1;curveFitting=1;jiggle=2;" vertex="1" parent="1">
          <mxGeometry x="345" y="160" width="90" height="30" as="geometry" />
        </mxCell>
        <mxCell id="2EdTgYvVB3OdcfnQWNMI-9" value="" style="rounded=1;whiteSpace=wrap;html=1;sketch=1;curveFitting=1;jiggle=2;" vertex="1" parent="1">
          <mxGeometry x="480" y="150" width="120" height="440" as="geometry" />
        </mxCell>
        <mxCell id="2EdTgYvVB3OdcfnQWNMI-10" value="Bucket 3" style="text;html=1;align=center;verticalAlign=middle;resizable=0;points=[];autosize=1;strokeColor=none;fillColor=none;fontStyle=1;fontSize=16;sketch=1;curveFitting=1;jiggle=2;" vertex="1" parent="1">
          <mxGeometry x="495" y="160" width="90" height="30" as="geometry" />
        </mxCell>
        <mxCell id="2EdTgYvVB3OdcfnQWNMI-12" value="HashMap" style="text;html=1;align=center;verticalAlign=middle;resizable=0;points=[];autosize=1;strokeColor=none;fillColor=none;fontStyle=1;fontSize=16;sketch=1;curveFitting=1;jiggle=2;" vertex="1" parent="1">
          <mxGeometry x="550" y="110" width="90" height="30" as="geometry" />
        </mxCell>
        <mxCell id="2EdTgYvVB3OdcfnQWNMI-13" value="Word 3 - 1" style="rounded=1;whiteSpace=wrap;html=1;fillColor=#d5e8d4;gradientColor=#97d077;strokeColor=#82b366;sketch=1;curveFitting=1;jiggle=2;" vertex="1" parent="1">
          <mxGeometry x="345" y="220" width="90" height="40" as="geometry" />
        </mxCell>
        <mxCell id="2EdTgYvVB3OdcfnQWNMI-14" value="Word 4 - 3" style="rounded=1;whiteSpace=wrap;html=1;fillColor=#d5e8d4;gradientColor=#97d077;strokeColor=#82b366;sketch=1;curveFitting=1;jiggle=2;" vertex="1" parent="1">
          <mxGeometry x="495" y="220" width="90" height="40" as="geometry" />
        </mxCell>
      </root>
    </mxGraphModel>
  </diagram>
  <diagram id="2qd4zdgaV3NSDKK01Fgm" name="Sliding Window">
    <mxGraphModel dx="1434" dy="739" grid="1" gridSize="10" guides="1" tooltips="1" connect="1" arrows="1" fold="1" page="1" pageScale="1" pageWidth="827" pageHeight="1169" math="0" shadow="0">
      <root>
        <mxCell id="0" />
        <mxCell id="1" parent="0" />
        <mxCell id="RJGcXQUi4DblF5S2vy1R-1" value="" style="rounded=0;whiteSpace=wrap;html=1;" vertex="1" parent="1">
          <mxGeometry x="270" y="160" width="250" height="60" as="geometry" />
        </mxCell>
        <mxCell id="RJGcXQUi4DblF5S2vy1R-2" value="a" style="rounded=0;whiteSpace=wrap;html=1;fontSize=20;" vertex="1" parent="1">
          <mxGeometry x="270" y="160" width="50" height="60" as="geometry" />
        </mxCell>
        <mxCell id="RJGcXQUi4DblF5S2vy1R-3" value="b" style="rounded=0;whiteSpace=wrap;html=1;fontSize=20;" vertex="1" parent="1">
          <mxGeometry x="320" y="160" width="50" height="60" as="geometry" />
        </mxCell>
        <mxCell id="RJGcXQUi4DblF5S2vy1R-4" value="c" style="rounded=0;whiteSpace=wrap;html=1;fontSize=20;" vertex="1" parent="1">
          <mxGeometry x="370" y="160" width="50" height="60" as="geometry" />
        </mxCell>
        <mxCell id="RJGcXQUi4DblF5S2vy1R-5" value="a" style="rounded=0;whiteSpace=wrap;html=1;fontSize=20;" vertex="1" parent="1">
          <mxGeometry x="420" y="160" width="50" height="60" as="geometry" />
        </mxCell>
        <mxCell id="RJGcXQUi4DblF5S2vy1R-6" value="c" style="rounded=0;whiteSpace=wrap;html=1;fontSize=20;" vertex="1" parent="1">
          <mxGeometry x="470" y="160" width="50" height="60" as="geometry" />
        </mxCell>
        <mxCell id="RJGcXQUi4DblF5S2vy1R-7" value="" style="rounded=0;whiteSpace=wrap;html=1;labelBackgroundColor=none;fillColor=none;strokeWidth=3;gradientColor=#7ea6e0;strokeColor=#6c8ebf;" vertex="1" parent="1">
          <mxGeometry x="270" y="150" width="150" height="80" as="geometry" />
        </mxCell>
        <mxCell id="RJGcXQUi4DblF5S2vy1R-22" value="" style="rounded=0;whiteSpace=wrap;html=1;" vertex="1" parent="1">
          <mxGeometry x="270" y="250" width="250" height="60" as="geometry" />
        </mxCell>
        <mxCell id="RJGcXQUi4DblF5S2vy1R-23" value="a" style="rounded=0;whiteSpace=wrap;html=1;fontSize=20;" vertex="1" parent="1">
          <mxGeometry x="270" y="250" width="50" height="60" as="geometry" />
        </mxCell>
        <mxCell id="RJGcXQUi4DblF5S2vy1R-24" value="b" style="rounded=0;whiteSpace=wrap;html=1;fontSize=20;" vertex="1" parent="1">
          <mxGeometry x="320" y="250" width="50" height="60" as="geometry" />
        </mxCell>
        <mxCell id="RJGcXQUi4DblF5S2vy1R-25" value="c" style="rounded=0;whiteSpace=wrap;html=1;fontSize=20;" vertex="1" parent="1">
          <mxGeometry x="370" y="250" width="50" height="60" as="geometry" />
        </mxCell>
        <mxCell id="RJGcXQUi4DblF5S2vy1R-26" value="a" style="rounded=0;whiteSpace=wrap;html=1;fontSize=20;" vertex="1" parent="1">
          <mxGeometry x="420" y="250" width="50" height="60" as="geometry" />
        </mxCell>
        <mxCell id="RJGcXQUi4DblF5S2vy1R-27" value="c" style="rounded=0;whiteSpace=wrap;html=1;fontSize=20;" vertex="1" parent="1">
          <mxGeometry x="470" y="250" width="50" height="60" as="geometry" />
        </mxCell>
        <mxCell id="RJGcXQUi4DblF5S2vy1R-28" value="" style="rounded=0;whiteSpace=wrap;html=1;labelBackgroundColor=none;fillColor=none;strokeWidth=3;gradientColor=#7ea6e0;strokeColor=#6c8ebf;" vertex="1" parent="1">
          <mxGeometry x="320" y="240" width="150" height="80" as="geometry" />
        </mxCell>
        <mxCell id="RJGcXQUi4DblF5S2vy1R-29" value="" style="rounded=0;whiteSpace=wrap;html=1;" vertex="1" parent="1">
          <mxGeometry x="270" y="340" width="250" height="60" as="geometry" />
        </mxCell>
        <mxCell id="RJGcXQUi4DblF5S2vy1R-30" value="a" style="rounded=0;whiteSpace=wrap;html=1;fontSize=20;" vertex="1" parent="1">
          <mxGeometry x="270" y="340" width="50" height="60" as="geometry" />
        </mxCell>
        <mxCell id="RJGcXQUi4DblF5S2vy1R-31" value="b" style="rounded=0;whiteSpace=wrap;html=1;fontSize=20;" vertex="1" parent="1">
          <mxGeometry x="320" y="340" width="50" height="60" as="geometry" />
        </mxCell>
        <mxCell id="RJGcXQUi4DblF5S2vy1R-32" value="c" style="rounded=0;whiteSpace=wrap;html=1;fontSize=20;" vertex="1" parent="1">
          <mxGeometry x="370" y="340" width="50" height="60" as="geometry" />
        </mxCell>
        <mxCell id="RJGcXQUi4DblF5S2vy1R-33" value="a" style="rounded=0;whiteSpace=wrap;html=1;fontSize=20;" vertex="1" parent="1">
          <mxGeometry x="420" y="340" width="50" height="60" as="geometry" />
        </mxCell>
        <mxCell id="RJGcXQUi4DblF5S2vy1R-34" value="c" style="rounded=0;whiteSpace=wrap;html=1;fontSize=20;" vertex="1" parent="1">
          <mxGeometry x="470" y="340" width="50" height="60" as="geometry" />
        </mxCell>
        <mxCell id="RJGcXQUi4DblF5S2vy1R-35" value="" style="rounded=0;whiteSpace=wrap;html=1;labelBackgroundColor=none;fillColor=none;strokeWidth=3;gradientColor=#7ea6e0;strokeColor=#6c8ebf;" vertex="1" parent="1">
          <mxGeometry x="370" y="330" width="150" height="80" as="geometry" />
        </mxCell>
      </root>
    </mxGraphModel>
  </diagram>
  <diagram id="9YrMV97BWEAX6-Xxw0RH" name="Deep-First Search">
    <mxGraphModel dx="1434" dy="795" grid="1" gridSize="10" guides="1" tooltips="1" connect="1" arrows="1" fold="1" page="1" pageScale="1" pageWidth="827" pageHeight="1169" math="0" shadow="0">
      <root>
        <mxCell id="0" />
        <mxCell id="1" parent="0" />
        <mxCell id="rT-J0fNYhg2QGvN7Z4M7-7" style="edgeStyle=orthogonalEdgeStyle;rounded=0;orthogonalLoop=1;jettySize=auto;html=1;shape=link;fillColor=#dae8fc;strokeColor=#000000;sketch=1;curveFitting=1;jiggle=2;" parent="1" source="IXCDdJqUAaGRPTfvXGBO-1" target="rT-J0fNYhg2QGvN7Z4M7-2" edge="1">
          <mxGeometry relative="1" as="geometry" />
        </mxCell>
        <mxCell id="IXCDdJqUAaGRPTfvXGBO-1" value="Friend 0" style="ellipse;whiteSpace=wrap;html=1;aspect=fixed;fillColor=#dae8fc;strokeColor=#6c8ebf;sketch=1;curveFitting=1;jiggle=2;" parent="1" vertex="1">
          <mxGeometry x="220" y="100" width="80" height="80" as="geometry" />
        </mxCell>
        <mxCell id="rT-J0fNYhg2QGvN7Z4M7-9" style="edgeStyle=orthogonalEdgeStyle;rounded=0;orthogonalLoop=1;jettySize=auto;html=1;entryX=0.5;entryY=0;entryDx=0;entryDy=0;shape=link;fillColor=#dae8fc;strokeColor=default;sketch=1;curveFitting=1;jiggle=2;exitX=0.5;exitY=1;exitDx=0;exitDy=0;" parent="1" source="rT-J0fNYhg2QGvN7Z4M7-1" edge="1">
          <mxGeometry relative="1" as="geometry">
            <mxPoint x="120" y="330" as="sourcePoint" />
            <mxPoint x="220" y="390" as="targetPoint" />
            <Array as="points">
              <mxPoint x="160" y="390" />
            </Array>
          </mxGeometry>
        </mxCell>
        <mxCell id="rT-J0fNYhg2QGvN7Z4M7-1" value="Friend 1" style="ellipse;whiteSpace=wrap;html=1;aspect=fixed;fillColor=#dae8fc;strokeColor=#6c8ebf;sketch=1;curveFitting=1;jiggle=2;" parent="1" vertex="1">
          <mxGeometry x="120" y="220" width="80" height="80" as="geometry" />
        </mxCell>
        <mxCell id="rT-J0fNYhg2QGvN7Z4M7-2" value="Friend 2" style="ellipse;whiteSpace=wrap;html=1;aspect=fixed;fillColor=#dae8fc;strokeColor=#6c8ebf;sketch=1;curveFitting=1;jiggle=2;" parent="1" vertex="1">
          <mxGeometry x="320" y="220" width="80" height="80" as="geometry" />
        </mxCell>
        <mxCell id="rT-J0fNYhg2QGvN7Z4M7-10" style="edgeStyle=orthogonalEdgeStyle;rounded=0;orthogonalLoop=1;jettySize=auto;html=1;shape=link;fillColor=#dae8fc;strokeColor=default;sketch=1;curveFitting=1;jiggle=2;" parent="1" source="rT-J0fNYhg2QGvN7Z4M7-3" target="rT-J0fNYhg2QGvN7Z4M7-2" edge="1">
          <mxGeometry relative="1" as="geometry" />
        </mxCell>
        <mxCell id="rT-J0fNYhg2QGvN7Z4M7-3" value="Friend 3" style="ellipse;whiteSpace=wrap;html=1;aspect=fixed;fillColor=#dae8fc;strokeColor=#6c8ebf;sketch=1;curveFitting=1;jiggle=2;" parent="1" vertex="1">
          <mxGeometry x="220" y="350" width="80" height="80" as="geometry" />
        </mxCell>
        <mxCell id="rT-J0fNYhg2QGvN7Z4M7-17" style="edgeStyle=orthogonalEdgeStyle;rounded=0;orthogonalLoop=1;jettySize=auto;html=1;entryX=0.5;entryY=0;entryDx=0;entryDy=0;shape=link;sketch=1;curveFitting=1;jiggle=2;" parent="1" target="rT-J0fNYhg2QGvN7Z4M7-5" edge="1">
          <mxGeometry relative="1" as="geometry">
            <mxPoint x="670" y="170" as="sourcePoint" />
            <mxPoint x="610" y="240" as="targetPoint" />
          </mxGeometry>
        </mxCell>
        <mxCell id="rT-J0fNYhg2QGvN7Z4M7-4" value="Friend 4" style="ellipse;whiteSpace=wrap;html=1;aspect=fixed;fillColor=#dae8fc;strokeColor=#6c8ebf;sketch=1;curveFitting=1;jiggle=2;" parent="1" vertex="1">
          <mxGeometry x="630" y="90" width="80" height="80" as="geometry" />
        </mxCell>
        <mxCell id="rT-J0fNYhg2QGvN7Z4M7-16" style="edgeStyle=orthogonalEdgeStyle;rounded=0;orthogonalLoop=1;jettySize=auto;html=1;entryX=0.5;entryY=0;entryDx=0;entryDy=0;shape=link;sketch=1;curveFitting=1;jiggle=2;" parent="1" source="rT-J0fNYhg2QGvN7Z4M7-5" target="rT-J0fNYhg2QGvN7Z4M7-6" edge="1">
          <mxGeometry relative="1" as="geometry" />
        </mxCell>
        <mxCell id="rT-J0fNYhg2QGvN7Z4M7-5" value="Friend 5" style="ellipse;whiteSpace=wrap;html=1;aspect=fixed;fillColor=#dae8fc;strokeColor=#6c8ebf;sketch=1;curveFitting=1;jiggle=2;" parent="1" vertex="1">
          <mxGeometry x="540" y="200" width="80" height="80" as="geometry" />
        </mxCell>
        <mxCell id="rT-J0fNYhg2QGvN7Z4M7-6" value="Friend 6" style="ellipse;whiteSpace=wrap;html=1;aspect=fixed;fillColor=#dae8fc;strokeColor=#6c8ebf;sketch=1;curveFitting=1;jiggle=2;" parent="1" vertex="1">
          <mxGeometry x="470" y="330" width="80" height="80" as="geometry" />
        </mxCell>
        <mxCell id="rT-J0fNYhg2QGvN7Z4M7-8" style="edgeStyle=orthogonalEdgeStyle;rounded=0;orthogonalLoop=1;jettySize=auto;html=1;entryX=0.413;entryY=-0.037;entryDx=0;entryDy=0;entryPerimeter=0;shape=link;fillColor=#dae8fc;strokeColor=default;sketch=1;curveFitting=1;jiggle=2;" parent="1" source="IXCDdJqUAaGRPTfvXGBO-1" target="rT-J0fNYhg2QGvN7Z4M7-1" edge="1">
          <mxGeometry relative="1" as="geometry" />
        </mxCell>
      </root>
    </mxGraphModel>
  </diagram>
  <diagram id="A8nR5D1_AzfrwLsUfDTO" name="Breadth-First Search ">
    <mxGraphModel dx="1434" dy="795" grid="1" gridSize="10" guides="1" tooltips="1" connect="1" arrows="1" fold="1" page="1" pageScale="1" pageWidth="827" pageHeight="1169" math="0" shadow="0">
      <root>
        <mxCell id="0" />
        <mxCell id="1" parent="0" />
        <mxCell id="-KVpbqV_6j6pDBlyoO6x-1" style="edgeStyle=orthogonalEdgeStyle;rounded=0;orthogonalLoop=1;jettySize=auto;html=1;shape=link;fillColor=#dae8fc;strokeColor=#000000;sketch=1;curveFitting=1;jiggle=2;" edge="1" parent="1" source="-KVpbqV_6j6pDBlyoO6x-2" target="-KVpbqV_6j6pDBlyoO6x-5">
          <mxGeometry relative="1" as="geometry" />
        </mxCell>
        <mxCell id="-KVpbqV_6j6pDBlyoO6x-2" value="Friend 0" style="ellipse;whiteSpace=wrap;html=1;aspect=fixed;fillColor=#dae8fc;strokeColor=#6c8ebf;sketch=1;curveFitting=1;jiggle=2;gradientColor=#7ea6e0;" vertex="1" parent="1">
          <mxGeometry x="409" y="110" width="80" height="80" as="geometry" />
        </mxCell>
        <mxCell id="wYnWo1gqb7J1AZUGOPvn-1" style="edgeStyle=orthogonalEdgeStyle;rounded=0;orthogonalLoop=1;jettySize=auto;html=1;entryX=0.5;entryY=0;entryDx=0;entryDy=0;shape=link;sketch=1;curveFitting=1;jiggle=2;" edge="1" parent="1" source="-KVpbqV_6j6pDBlyoO6x-4" target="-KVpbqV_6j6pDBlyoO6x-7">
          <mxGeometry relative="1" as="geometry" />
        </mxCell>
        <mxCell id="oclb4oA3zON_vjb3srKw-1" style="edgeStyle=orthogonalEdgeStyle;rounded=0;orthogonalLoop=1;jettySize=auto;html=1;sketch=1;curveFitting=1;jiggle=2;" edge="1" parent="1" source="-KVpbqV_6j6pDBlyoO6x-4" target="-KVpbqV_6j6pDBlyoO6x-11">
          <mxGeometry relative="1" as="geometry">
            <Array as="points">
              <mxPoint x="210" y="280" />
              <mxPoint x="210" y="560" />
            </Array>
          </mxGeometry>
        </mxCell>
        <mxCell id="-KVpbqV_6j6pDBlyoO6x-4" value="Friend 1" style="ellipse;whiteSpace=wrap;html=1;aspect=fixed;fillColor=#dae8fc;strokeColor=#6c8ebf;sketch=1;curveFitting=1;jiggle=2;gradientColor=#7ea6e0;" vertex="1" parent="1">
          <mxGeometry x="319" y="240" width="80" height="80" as="geometry" />
        </mxCell>
        <mxCell id="wYnWo1gqb7J1AZUGOPvn-6" style="edgeStyle=orthogonalEdgeStyle;rounded=0;orthogonalLoop=1;jettySize=auto;html=1;entryX=1;entryY=0.5;entryDx=0;entryDy=0;sketch=1;curveFitting=1;jiggle=2;shape=link;" edge="1" parent="1" source="-KVpbqV_6j6pDBlyoO6x-5" target="-KVpbqV_6j6pDBlyoO6x-7">
          <mxGeometry relative="1" as="geometry">
            <Array as="points">
              <mxPoint x="559" y="420" />
            </Array>
          </mxGeometry>
        </mxCell>
        <mxCell id="-KVpbqV_6j6pDBlyoO6x-5" value="Friend 2" style="ellipse;whiteSpace=wrap;html=1;aspect=fixed;fillColor=#dae8fc;strokeColor=#6c8ebf;sketch=1;curveFitting=1;jiggle=2;" vertex="1" parent="1">
          <mxGeometry x="519" y="250" width="80" height="80" as="geometry" />
        </mxCell>
        <mxCell id="wYnWo1gqb7J1AZUGOPvn-4" style="edgeStyle=orthogonalEdgeStyle;rounded=0;orthogonalLoop=1;jettySize=auto;html=1;entryX=0.5;entryY=0;entryDx=0;entryDy=0;sketch=1;curveFitting=1;jiggle=2;shape=link;" edge="1" parent="1" source="-KVpbqV_6j6pDBlyoO6x-7" target="-KVpbqV_6j6pDBlyoO6x-11">
          <mxGeometry relative="1" as="geometry" />
        </mxCell>
        <mxCell id="-KVpbqV_6j6pDBlyoO6x-7" value="Friend 3" style="ellipse;whiteSpace=wrap;html=1;aspect=fixed;fillColor=#dae8fc;strokeColor=#6c8ebf;sketch=1;curveFitting=1;jiggle=2;" vertex="1" parent="1">
          <mxGeometry x="319" y="380" width="80" height="80" as="geometry" />
        </mxCell>
        <mxCell id="wYnWo1gqb7J1AZUGOPvn-10" style="edgeStyle=orthogonalEdgeStyle;rounded=0;orthogonalLoop=1;jettySize=auto;html=1;entryX=1;entryY=0.5;entryDx=0;entryDy=0;sketch=1;curveFitting=1;jiggle=2;shape=link;" edge="1" parent="1" source="-KVpbqV_6j6pDBlyoO6x-9" target="-KVpbqV_6j6pDBlyoO6x-12">
          <mxGeometry relative="1" as="geometry" />
        </mxCell>
        <mxCell id="wYnWo1gqb7J1AZUGOPvn-12" value="" style="edgeStyle=orthogonalEdgeStyle;rounded=0;orthogonalLoop=1;jettySize=auto;html=1;" edge="1" parent="1" source="-KVpbqV_6j6pDBlyoO6x-9">
          <mxGeometry relative="1" as="geometry">
            <mxPoint x="399" y="560" as="targetPoint" />
          </mxGeometry>
        </mxCell>
        <mxCell id="-KVpbqV_6j6pDBlyoO6x-9" value="Friend 4" style="ellipse;whiteSpace=wrap;html=1;aspect=fixed;fillColor=#dae8fc;strokeColor=#6c8ebf;sketch=1;curveFitting=1;jiggle=2;" vertex="1" parent="1">
          <mxGeometry x="479" y="520" width="80" height="80" as="geometry" />
        </mxCell>
        <mxCell id="wYnWo1gqb7J1AZUGOPvn-7" style="edgeStyle=orthogonalEdgeStyle;rounded=0;orthogonalLoop=1;jettySize=auto;html=1;sketch=1;curveFitting=1;jiggle=2;shape=link;" edge="1" parent="1" source="-KVpbqV_6j6pDBlyoO6x-11" target="-KVpbqV_6j6pDBlyoO6x-9">
          <mxGeometry relative="1" as="geometry" />
        </mxCell>
        <mxCell id="wYnWo1gqb7J1AZUGOPvn-9" style="edgeStyle=orthogonalEdgeStyle;rounded=0;orthogonalLoop=1;jettySize=auto;html=1;entryX=0;entryY=0.5;entryDx=0;entryDy=0;sketch=1;curveFitting=1;jiggle=2;" edge="1" parent="1" source="-KVpbqV_6j6pDBlyoO6x-11" target="-KVpbqV_6j6pDBlyoO6x-12">
          <mxGeometry relative="1" as="geometry" />
        </mxCell>
        <mxCell id="-KVpbqV_6j6pDBlyoO6x-11" value="Friend 5" style="ellipse;whiteSpace=wrap;html=1;aspect=fixed;fillColor=#dae8fc;strokeColor=#6c8ebf;sketch=1;curveFitting=1;jiggle=2;gradientColor=#7ea6e0;" vertex="1" parent="1">
          <mxGeometry x="319" y="520" width="80" height="80" as="geometry" />
        </mxCell>
        <mxCell id="-KVpbqV_6j6pDBlyoO6x-12" value="Friend 6" style="ellipse;whiteSpace=wrap;html=1;aspect=fixed;fillColor=#dae8fc;strokeColor=#6c8ebf;sketch=1;curveFitting=1;jiggle=2;gradientColor=#7ea6e0;" vertex="1" parent="1">
          <mxGeometry x="399" y="630" width="80" height="80" as="geometry" />
        </mxCell>
        <mxCell id="-KVpbqV_6j6pDBlyoO6x-13" style="edgeStyle=orthogonalEdgeStyle;rounded=0;orthogonalLoop=1;jettySize=auto;html=1;entryX=0.413;entryY=-0.037;entryDx=0;entryDy=0;entryPerimeter=0;fillColor=#dae8fc;strokeColor=default;sketch=1;curveFitting=1;jiggle=2;" edge="1" parent="1" source="-KVpbqV_6j6pDBlyoO6x-2" target="-KVpbqV_6j6pDBlyoO6x-4">
          <mxGeometry relative="1" as="geometry" />
        </mxCell>
      </root>
    </mxGraphModel>
  </diagram>
  <diagram id="htUdm4HQGw6dKopSQTq7" name="Dijkstra Search">
    <mxGraphModel dx="1434" dy="795" grid="1" gridSize="10" guides="1" tooltips="1" connect="1" arrows="1" fold="1" page="1" pageScale="1" pageWidth="827" pageHeight="1169" math="0" shadow="0">
      <root>
        <mxCell id="0" />
        <mxCell id="1" parent="0" />
        <mxCell id="gALhhmfAq2RSKogglj1V-18" style="edgeStyle=orthogonalEdgeStyle;rounded=0;orthogonalLoop=1;jettySize=auto;html=1;fillColor=#dae8fc;strokeColor=#000000;sketch=1;curveFitting=1;jiggle=2;" edge="1" parent="1" source="gALhhmfAq2RSKogglj1V-19" target="gALhhmfAq2RSKogglj1V-24">
          <mxGeometry relative="1" as="geometry" />
        </mxCell>
        <mxCell id="gALhhmfAq2RSKogglj1V-19" value="Friend 0" style="ellipse;whiteSpace=wrap;html=1;aspect=fixed;fillColor=#dae8fc;strokeColor=#6c8ebf;sketch=1;curveFitting=1;jiggle=2;gradientColor=#7ea6e0;" vertex="1" parent="1">
          <mxGeometry x="419" y="120" width="80" height="80" as="geometry" />
        </mxCell>
        <mxCell id="gALhhmfAq2RSKogglj1V-20" style="edgeStyle=orthogonalEdgeStyle;rounded=0;orthogonalLoop=1;jettySize=auto;html=1;entryX=0.5;entryY=0;entryDx=0;entryDy=0;shape=link;sketch=1;curveFitting=1;jiggle=2;" edge="1" parent="1" source="gALhhmfAq2RSKogglj1V-22" target="gALhhmfAq2RSKogglj1V-26">
          <mxGeometry relative="1" as="geometry" />
        </mxCell>
        <mxCell id="gALhhmfAq2RSKogglj1V-21" style="edgeStyle=orthogonalEdgeStyle;rounded=0;orthogonalLoop=1;jettySize=auto;html=1;sketch=1;curveFitting=1;jiggle=2;shape=link;" edge="1" parent="1" source="gALhhmfAq2RSKogglj1V-22" target="gALhhmfAq2RSKogglj1V-32">
          <mxGeometry relative="1" as="geometry">
            <Array as="points">
              <mxPoint x="220" y="290" />
              <mxPoint x="220" y="570" />
            </Array>
          </mxGeometry>
        </mxCell>
        <mxCell id="gALhhmfAq2RSKogglj1V-22" value="Friend 1" style="ellipse;whiteSpace=wrap;html=1;aspect=fixed;fillColor=#dae8fc;strokeColor=#6c8ebf;sketch=1;curveFitting=1;jiggle=2;" vertex="1" parent="1">
          <mxGeometry x="329" y="250" width="80" height="80" as="geometry" />
        </mxCell>
        <mxCell id="gALhhmfAq2RSKogglj1V-23" style="edgeStyle=orthogonalEdgeStyle;rounded=0;orthogonalLoop=1;jettySize=auto;html=1;entryX=1;entryY=0.5;entryDx=0;entryDy=0;sketch=1;curveFitting=1;jiggle=2;" edge="1" parent="1" source="gALhhmfAq2RSKogglj1V-24" target="gALhhmfAq2RSKogglj1V-26">
          <mxGeometry relative="1" as="geometry">
            <Array as="points">
              <mxPoint x="569" y="430" />
            </Array>
          </mxGeometry>
        </mxCell>
        <mxCell id="gALhhmfAq2RSKogglj1V-24" value="Friend 2" style="ellipse;whiteSpace=wrap;html=1;aspect=fixed;fillColor=#dae8fc;strokeColor=#6c8ebf;sketch=1;curveFitting=1;jiggle=2;gradientColor=#7ea6e0;" vertex="1" parent="1">
          <mxGeometry x="529" y="260" width="80" height="80" as="geometry" />
        </mxCell>
        <mxCell id="gALhhmfAq2RSKogglj1V-25" style="edgeStyle=orthogonalEdgeStyle;rounded=0;orthogonalLoop=1;jettySize=auto;html=1;entryX=0.5;entryY=0;entryDx=0;entryDy=0;sketch=1;curveFitting=1;jiggle=2;" edge="1" parent="1" source="gALhhmfAq2RSKogglj1V-26" target="gALhhmfAq2RSKogglj1V-32">
          <mxGeometry relative="1" as="geometry" />
        </mxCell>
        <mxCell id="gALhhmfAq2RSKogglj1V-26" value="Friend 3" style="ellipse;whiteSpace=wrap;html=1;aspect=fixed;fillColor=#dae8fc;strokeColor=#6c8ebf;sketch=1;curveFitting=1;jiggle=2;gradientColor=#7ea6e0;" vertex="1" parent="1">
          <mxGeometry x="329" y="390" width="80" height="80" as="geometry" />
        </mxCell>
        <mxCell id="gALhhmfAq2RSKogglj1V-27" style="edgeStyle=orthogonalEdgeStyle;rounded=0;orthogonalLoop=1;jettySize=auto;html=1;entryX=1;entryY=0.5;entryDx=0;entryDy=0;sketch=1;curveFitting=1;jiggle=2;" edge="1" parent="1" source="gALhhmfAq2RSKogglj1V-29" target="gALhhmfAq2RSKogglj1V-33">
          <mxGeometry relative="1" as="geometry" />
        </mxCell>
        <mxCell id="gALhhmfAq2RSKogglj1V-29" value="Friend 4" style="ellipse;whiteSpace=wrap;html=1;aspect=fixed;fillColor=#dae8fc;strokeColor=#6c8ebf;sketch=1;curveFitting=1;jiggle=2;gradientColor=#7ea6e0;" vertex="1" parent="1">
          <mxGeometry x="489" y="530" width="80" height="80" as="geometry" />
        </mxCell>
        <mxCell id="gALhhmfAq2RSKogglj1V-31" style="edgeStyle=orthogonalEdgeStyle;rounded=0;orthogonalLoop=1;jettySize=auto;html=1;entryX=0;entryY=0.5;entryDx=0;entryDy=0;sketch=1;curveFitting=1;jiggle=2;shape=link;" edge="1" parent="1" source="gALhhmfAq2RSKogglj1V-32" target="gALhhmfAq2RSKogglj1V-33">
          <mxGeometry relative="1" as="geometry" />
        </mxCell>
        <mxCell id="gALhhmfAq2RSKogglj1V-47" style="edgeStyle=orthogonalEdgeStyle;rounded=0;orthogonalLoop=1;jettySize=auto;html=1;entryX=0;entryY=0.5;entryDx=0;entryDy=0;sketch=1;curveFitting=1;jiggle=2;" edge="1" parent="1" source="gALhhmfAq2RSKogglj1V-32" target="gALhhmfAq2RSKogglj1V-29">
          <mxGeometry relative="1" as="geometry" />
        </mxCell>
        <mxCell id="gALhhmfAq2RSKogglj1V-32" value="Friend 5" style="ellipse;whiteSpace=wrap;html=1;aspect=fixed;fillColor=#dae8fc;strokeColor=#6c8ebf;sketch=1;curveFitting=1;jiggle=2;gradientColor=#7ea6e0;" vertex="1" parent="1">
          <mxGeometry x="329" y="530" width="80" height="80" as="geometry" />
        </mxCell>
        <mxCell id="gALhhmfAq2RSKogglj1V-33" value="Friend 6" style="ellipse;whiteSpace=wrap;html=1;aspect=fixed;fillColor=#dae8fc;strokeColor=#6c8ebf;sketch=1;curveFitting=1;jiggle=2;gradientColor=#7ea6e0;" vertex="1" parent="1">
          <mxGeometry x="409" y="640" width="80" height="80" as="geometry" />
        </mxCell>
        <mxCell id="gALhhmfAq2RSKogglj1V-34" style="edgeStyle=orthogonalEdgeStyle;rounded=0;orthogonalLoop=1;jettySize=auto;html=1;entryX=0.413;entryY=-0.037;entryDx=0;entryDy=0;entryPerimeter=0;fillColor=#dae8fc;strokeColor=default;sketch=1;curveFitting=1;jiggle=2;shape=link;" edge="1" parent="1" source="gALhhmfAq2RSKogglj1V-19" target="gALhhmfAq2RSKogglj1V-22">
          <mxGeometry relative="1" as="geometry" />
        </mxCell>
        <mxCell id="gALhhmfAq2RSKogglj1V-35" value="5" style="text;html=1;align=center;verticalAlign=middle;resizable=0;points=[];autosize=1;strokeColor=none;fillColor=none;fontStyle=1;strokeWidth=10;rounded=0;perimeterSpacing=2;fontSize=20;" vertex="1" parent="1">
          <mxGeometry x="320" y="190" width="30" height="40" as="geometry" />
        </mxCell>
        <mxCell id="gALhhmfAq2RSKogglj1V-36" value="10" style="text;html=1;align=center;verticalAlign=middle;resizable=0;points=[];autosize=1;strokeColor=none;fillColor=none;fontStyle=1;strokeWidth=10;rounded=0;perimeterSpacing=2;fontSize=20;" vertex="1" parent="1">
          <mxGeometry x="220" y="420" width="50" height="40" as="geometry" />
        </mxCell>
        <mxCell id="gALhhmfAq2RSKogglj1V-37" value="4" style="text;html=1;align=center;verticalAlign=middle;resizable=0;points=[];autosize=1;strokeColor=none;fillColor=none;fontStyle=1;strokeWidth=10;rounded=0;perimeterSpacing=2;fontSize=20;" vertex="1" parent="1">
          <mxGeometry x="390" y="340" width="30" height="40" as="geometry" />
        </mxCell>
        <mxCell id="gALhhmfAq2RSKogglj1V-38" value="3" style="text;html=1;align=center;verticalAlign=middle;resizable=0;points=[];autosize=1;strokeColor=none;fillColor=none;fontStyle=1;strokeWidth=10;rounded=0;perimeterSpacing=2;fontSize=20;" vertex="1" parent="1">
          <mxGeometry x="600" y="190" width="30" height="40" as="geometry" />
        </mxCell>
        <mxCell id="gALhhmfAq2RSKogglj1V-39" value="4" style="text;html=1;align=center;verticalAlign=middle;resizable=0;points=[];autosize=1;strokeColor=none;fillColor=none;fontStyle=1;strokeWidth=10;rounded=0;perimeterSpacing=2;fontSize=20;" vertex="1" parent="1">
          <mxGeometry x="590" y="360" width="30" height="40" as="geometry" />
        </mxCell>
        <mxCell id="gALhhmfAq2RSKogglj1V-40" value="5" style="text;html=1;align=center;verticalAlign=middle;resizable=0;points=[];autosize=1;strokeColor=none;fillColor=none;fontStyle=1;strokeWidth=10;rounded=0;perimeterSpacing=2;fontSize=20;" vertex="1" parent="1">
          <mxGeometry x="390" y="480" width="30" height="40" as="geometry" />
        </mxCell>
        <mxCell id="gALhhmfAq2RSKogglj1V-41" value="12" style="text;html=1;align=center;verticalAlign=middle;resizable=0;points=[];autosize=1;strokeColor=none;fillColor=none;fontStyle=1;strokeWidth=10;rounded=0;perimeterSpacing=2;fontSize=20;" vertex="1" parent="1">
          <mxGeometry x="369" y="620" width="50" height="40" as="geometry" />
        </mxCell>
        <mxCell id="gALhhmfAq2RSKogglj1V-42" value="2" style="text;html=1;align=center;verticalAlign=middle;resizable=0;points=[];autosize=1;strokeColor=none;fillColor=none;fontStyle=1;strokeWidth=10;rounded=0;perimeterSpacing=2;fontSize=20;" vertex="1" parent="1">
          <mxGeometry x="434" y="520" width="30" height="40" as="geometry" />
        </mxCell>
        <mxCell id="gALhhmfAq2RSKogglj1V-43" value="3" style="text;html=1;align=center;verticalAlign=middle;resizable=0;points=[];autosize=1;strokeColor=none;fillColor=none;fontStyle=1;strokeWidth=10;rounded=0;perimeterSpacing=2;fontSize=20;" vertex="1" parent="1">
          <mxGeometry x="540" y="620" width="30" height="40" as="geometry" />
        </mxCell>
      </root>
    </mxGraphModel>
  </diagram>
</mxfile>
